<svg width="57" height="57" viewBox="0 0 57 57" fill="none" xmlns="http://www.w3.org/2000/svg">
<path d="M17.0207 0C7.77383 0 0.255127 7.5187 0.255127 16.7655V39.9794C0.255127 49.2262 7.77383 56.7449 17.0207 56.7449H40.2345C49.4813 56.7449 57 49.2262 57 39.9794V16.7655C57 7.5187 49.4813 0 40.2345 0H17.0207ZM44.1035 10.3173C45.5221 10.3173 46.6828 11.4779 46.6828 12.8966C46.6828 14.3152 45.5221 15.4759 44.1035 15.4759C42.6848 15.4759 41.5241 14.3152 41.5241 12.8966C41.5241 11.4779 42.6848 10.3173 44.1035 10.3173ZM28.6276 14.1862C36.4558 14.1862 42.8138 20.5442 42.8138 28.3724C42.8138 36.2007 36.4558 42.5587 28.6276 42.5587C20.7994 42.5587 14.4414 36.2007 14.4414 28.3724C14.4414 20.5442 20.7994 14.1862 28.6276 14.1862ZM28.6276 16.7655C22.2309 16.7655 17.0207 21.9758 17.0207 28.3724C17.0207 34.7691 22.2309 39.9794 28.6276 39.9794C35.0243 39.9794 40.2345 34.7691 40.2345 28.3724C40.2345 21.9758 35.0243 16.7655 28.6276 16.7655Z" fill="#D0BCB9"/>
</svg>
