<svg width="35" height="35" viewBox="0 0 35 35" fill="none" xmlns="http://www.w3.org/2000/svg">
<path d="M0.5 10.3008C0.5 4.89566 4.89566 0.5 10.3008 0.5H24.5635C29.9686 0.5 34.3643 4.89566 34.3643 10.3008V24.5635C34.3643 29.9686 29.9686 34.3643 24.5635 34.3643H10.3008C4.89566 34.3643 0.5 29.9686 0.5 24.5635V10.3008ZM29.0253 7.9237C29.0253 6.77595 28.0883 5.83896 26.9406 5.83896C25.7928 5.83896 24.8558 6.77595 24.8558 7.9237C24.8558 9.07145 25.7928 10.0084 26.9406 10.0084C28.0883 10.0084 29.0253 9.07145 29.0253 7.9237ZM26.6482 17.4321C26.6482 12.3463 22.518 8.21607 17.4321 8.21607C12.3463 8.21607 8.21607 12.3463 8.21607 17.4321C8.21607 22.518 12.3463 26.6482 17.4321 26.6482C22.518 26.6482 26.6482 22.518 26.6482 17.4321ZM10.8008 17.4321C10.8008 13.7781 13.7781 10.8008 17.4321 10.8008C21.0861 10.8008 24.0635 13.7781 24.0635 17.4321C24.0635 21.0861 21.0861 24.0635 17.4321 24.0635C13.7781 24.0635 10.8008 21.0861 10.8008 17.4321Z" stroke="white"/>
</svg>
