<svg width="56" height="82" viewBox="0 0 56 82" fill="none" xmlns="http://www.w3.org/2000/svg">
<path d="M27.8553 8.43544C29.3892 8.78518 30.633 7.85425 31.5392 6.72291C31.7751 6.35428 31.9023 5.90545 31.8963 5.47419C31.8886 4.91551 31.6883 4.34973 31.3888 3.86869C30.5725 2.55729 28.7403 2.62444 29.265 1.38909C29.766 0.769495 30.6356 1.00671 31.2573 1.2999C32.0225 1.68861 32.5354 2.33988 32.8736 3.10162C33.3338 4.13798 33.1248 5.11529 32.7797 5.6169C32.4998 6.02359 31.6406 6.54689 31.6406 6.54689" stroke="white" stroke-width="1.2" stroke-linecap="round"/>
<path d="M32.7798 5.61719C32.7798 5.61719 33.2751 6.5655 33.0241 6.9551C32.7757 7.34081 32.2313 7.45821 31.8588 7.74001C31.3091 8.15596 30.0702 9.2747 29.6931 9.77468C29.3082 10.1759 28.4323 12.5476 27.7494 11.9111C27.4953 11.5695 27.7291 10.9823 27.4039 10.7002C27.0097 10.3582 25.5671 10.7044 24.9319 10.5236C24.5198 10.4065 24.1805 10.1198 23.8421 9.86768C23.0651 9.07463 22.4568 8.17384 21.2638 8.42969C19.6179 9.02598 19.6624 11.3943 19.5361 12.8446C19.1541 18.2139 20.4289 24.9438 20.307 25.6351C20.1224 26.6814 19.4258 27.5899 18.8716 28.5111C17.3157 30.6581 15.9799 32.1377 15.8414 34.8686C15.4943 39.8791 16.9747 44.6741 18.0742 49.5008C18.4817 51.2361 18.8295 52.9836 19.2172 54.723C19.4872 55.9348 19.8248 57.1343 20.0411 58.3558C20.2601 59.5922 20.5261 60.8358 20.5196 62.0895C20.5113 63.7011 20.205 65.3059 19.8551 66.8828C19.3929 68.9661 17.9679 73.0132 17.9679 73.0132C17.9679 73.0132 17.5143 69.4368 17.4097 67.6397C17.2889 65.5656 17.0402 63.4673 17.33 61.4084C17.6166 59.3715 18.3597 57.4071 19.1108 55.4798C19.7806 53.7611 20.667 52.1241 21.5296 50.4847C22.3621 48.9026 23.3566 47.4003 24.1877 45.8175C25.109 44.0628 26.0681 42.3144 26.766 40.4692C28.1097 36.8566 28.3495 32.8879 28.0153 29.0914C27.9056 28.1999 27.7035 27.3102 27.3774 26.4677C27.0781 25.6945 26.7319 24.9095 26.1812 24.2728C25.8257 23.8617 25.4815 23.5205 24.8671 23.2777C23.6123 22.7818 22.2556 23.3993 22.1518 24.2714M22.1518 24.2714C22.0611 25.0346 22.8605 25.4501 23.2574 25.5216C24.1072 25.6748 24.3102 25.3433 25.118 24.8026C26.0919 24.1508 27.6412 22.9915 28.9964 21.7675C30.3516 20.5435 31.5126 19.2549 31.71 18.3443C32.4528 14.9164 28.5515 15.8296 26.7128 15.5944C25.0429 14.7228 22.8447 13.2315 21.3968 15.0394C20.1766 16.5629 21.3798 19.2534 21.7266 21.017C21.9144 22.0955 22.1518 24.2714 22.1518 24.2714Z" stroke="white" stroke-width="1.2" stroke-linecap="round" stroke-linejoin="round"/>
<path d="M30.0087 11.6084C30.0087 11.6084 30.3696 12.3136 30.6998 12.5166C32.2629 13.4777 35.0383 12.9335 34.6337 14.6357C33.8182 18.066 31.5542 24.9702 31.1444 25.9001C30.8642 26.5359 30.3744 27.3647 29.8589 26.9845C29.1497 26.4614 28.6533 25.087 27.7471 24.1781C26.841 23.2691 25.9093 22.4587 24.749 22.0515C23.904 21.755 21.9401 22.4931 21.9401 22.4931" stroke="white" stroke-width="1.2" stroke-linecap="round" stroke-linejoin="round"/>
<path d="M16.559 80.5815C16.559 80.5815 29.8123 81.211 36.0159 79.3706C41.1442 77.8492 46.3318 75.3638 49.8377 71.4994C52.9899 68.025 55.0934 63.3623 55.3664 58.7846C55.6873 53.4057 54.0583 47.7387 50.6883 43.2441C47.2697 38.6847 40.5213 34.235 34.2084 31.8411C26.6074 28.9588 17.7758 26.8342 9.86078 28.8138C6.55708 29.64 2.97092 31.6667 1.67401 34.6666C0.0149297 38.5043 1.71345 43.2305 3.5878 46.9779C5.48128 50.7635 9.20173 53.4962 12.5188 56.2618C16.094 59.2425 19.9168 62.0921 24.2142 64.032C28.0741 65.7743 32.4318 68.4566 36.5475 67.3621C38.1292 66.9414 39.5008 65.456 39.8966 63.9311C39.9745 63.6309 41.0451 60.1562 38.0027 55.7597C35.3399 51.9117 32.4039 48.2372 24.6765 44.8899C23.0886 44.2021 18.0208 42.3327 12.275 42.5857C10.3382 42.6709 6.64666 43.7765 5.54342 45.9423C3.82826 49.3095 5.77352 53.724 7.73434 56.9681C9.59913 60.0534 17.4333 67.0518 22.2472 68.573C24.7053 69.3498 27.7446 70.0303 29.2113 68.1693C31.8082 64.8743 25.6191 59.8556 22.1941 57.7754C19.7207 56.2732 16.9994 54.9607 14.1136 54.4453C12.2664 54.1155 10.2139 53.9616 8.47859 54.6472C6.95653 55.2485 5.36406 56.3601 4.86366 57.8511C4.08943 60.158 5.25803 62.816 6.40532 64.9654C7.88347 67.7346 10.3924 70.2885 10.3924 70.2885" stroke="white" stroke-width="1.2" stroke-linecap="round"/>
</svg>
