<svg width="75" height="47" viewBox="0 0 75 47" fill="none" xmlns="http://www.w3.org/2000/svg">
<path d="M74.335 3.31382C74.4778 2.8449 74.5461 2.41014 74.5275 2.02196C74.4809 0.897786 73.7076 0.0810547 71.8879 0.0810547H63.7578C61.7051 0.0810547 60.758 1.32323 60.2052 2.56852C60.2052 2.56852 55.1371 12.9997 49.2958 19.8783C47.4015 21.8688 46.4388 21.8192 45.414 21.8192C44.8643 21.8192 43.4762 21.1546 43.4762 19.3317V3.22997C43.4762 1.0748 42.9389 0.0810547 41.203 0.0810547H26.7658C25.5019 0.0810547 24.8435 1.0748 24.8435 2.07165C24.8435 4.14298 27.6322 4.63984 27.949 10.4439V21.6949C27.949 24.4277 27.4738 24.9246 26.449 24.9246C23.6852 24.9246 18.2445 15.6083 14.6018 3.39767C13.813 0.994057 13.0242 0.0810547 10.9715 0.0810547H2.76384C0.394392 0.0810547 0 1.24249 0 2.48467C0 4.72369 1.86326 16.8287 12.0336 30.7473C19.409 40.84 29.1259 46.6627 37.728 46.6627C42.9389 46.6627 43.4731 45.3367 43.4731 43.2653V34.036C43.4762 31.5485 44.0445 31.1355 45.7028 31.1355C46.886 31.1355 49.2989 31.9118 53.957 37.3464C59.3295 43.6131 60.3046 46.6627 63.3852 46.6627H71.5152C73.4033 46.6627 74.4871 45.8708 74.5306 44.3336C74.5399 43.9423 74.484 43.5045 74.3567 43.0169C73.7542 41.2282 70.9904 36.8557 67.5434 32.6882C65.6335 30.3809 63.7485 28.0953 62.8821 26.8531C62.3014 26.0426 62.0809 25.4712 62.1088 24.9246C62.1368 24.3501 62.4349 23.8035 62.8821 23.0396C62.8013 23.0396 73.3102 8.28563 74.335 3.31382Z" fill="#D0BCB9"/>
</svg>
