<svg width="46" height="29" viewBox="0 0 46 29" fill="none" xmlns="http://www.w3.org/2000/svg">
<path d="M45.1934 1.84052L45.1866 1.86264L45.182 1.88529C45.0412 2.56829 44.5543 3.64873 43.8599 4.93045C43.1749 6.19505 42.3174 7.60338 41.4769 8.92292C40.6371 10.2414 39.8179 11.4656 39.2111 12.3612C38.9827 12.6983 38.7848 12.9882 38.6268 13.2196C38.5748 13.2958 38.5271 13.3656 38.4841 13.4287C38.3978 13.5553 38.3292 13.6564 38.2828 13.7261C38.2601 13.7602 38.2399 13.7909 38.2251 13.8147C38.2187 13.8248 38.2077 13.8427 38.1972 13.862L38.1969 13.8626C38.1956 13.8651 38.1925 13.8707 38.1886 13.8787C37.9332 14.3151 37.6846 14.751 37.6605 15.2384C37.6347 15.7433 37.8484 16.209 38.2267 16.7375C38.7748 17.5226 39.9489 18.9455 41.1136 20.3526C42.1605 21.6183 43.1032 22.9148 43.8284 24.0279C44.5546 25.1427 45.0374 26.0355 45.2057 26.5234C45.2712 26.7796 45.2962 26.9954 45.292 27.1758C45.2821 27.5213 45.1635 27.7269 44.9877 27.8608C44.7924 28.0094 44.4593 28.1199 43.9392 28.1199H38.9441C38.2257 28.1199 37.7305 27.7977 36.9584 26.8799C36.655 26.5192 36.3261 26.0882 35.9326 25.5722C35.8205 25.4253 35.7031 25.2714 35.5797 25.1104C35.0271 24.3899 34.3646 23.5429 33.531 22.5705C30.6563 19.2167 29.044 18.58 28.08 18.58C27.5708 18.58 27.0071 18.6306 26.6316 19.0753C26.4517 19.2883 26.3506 19.5514 26.2918 19.8384C26.2331 20.1245 26.2105 20.4649 26.21 20.8614V20.862V26.5326C26.21 27.1461 26.1236 27.4445 25.8452 27.6539C25.5065 27.9087 24.7766 28.1199 23.1802 28.1199C18.1101 28.1199 12.2729 24.6711 7.79719 18.5465C1.60428 10.0712 0.5 2.73543 0.5 1.47679C0.5 1.13026 0.559289 0.917068 0.677395 0.783749C0.786109 0.661031 1.04166 0.5 1.69812 0.5H6.74095C7.29265 0.5 7.58604 0.619919 7.80165 0.826285C8.04477 1.05898 8.25597 1.46264 8.49422 2.18727C9.62143 5.96416 11.0291 9.30344 12.3772 11.7087C13.0506 12.9099 13.7182 13.8947 14.3394 14.5864C14.6497 14.9321 14.9601 15.2177 15.2657 15.4201C15.5665 15.6195 15.9014 15.764 16.2504 15.764C16.4419 15.764 16.6626 15.742 16.8739 15.642C17.0984 15.5357 17.2688 15.3625 17.3891 15.1356C17.6054 14.7274 17.672 14.1145 17.672 13.2796V6.36698V6.35335L17.6712 6.33973C17.5687 4.46165 17.06 3.4085 16.5614 2.65823C16.4495 2.4898 16.3391 2.33823 16.2419 2.20466C16.2348 2.19483 16.2277 2.1851 16.2207 2.17547C16.1156 2.03101 16.0301 1.9121 15.9594 1.79822C15.8235 1.5796 15.764 1.4142 15.764 1.22303C15.764 1.02185 15.8312 0.836463 15.9415 0.708883C16.0434 0.590982 16.2 0.5 16.445 0.5H25.3153C25.7482 0.5 25.9085 0.61698 25.9998 0.751503C26.1255 0.936723 26.2119 1.2872 26.2119 1.93471V11.8277C26.2119 12.5282 26.484 13.0405 26.8366 13.3747C27.1669 13.6877 27.5828 13.856 27.9025 13.856C27.9203 13.856 27.9384 13.856 27.9568 13.856C28.2543 13.8567 28.6321 13.8576 29.0765 13.6841C29.5426 13.5022 30.0406 13.1482 30.6497 12.5082L30.6595 12.4979L30.6686 12.4871C32.4922 10.3398 34.1855 7.65058 35.418 5.5106C36.0357 4.43819 36.5404 3.49878 36.8909 2.82706C37.0663 2.49112 37.2031 2.22195 37.2963 2.03634C37.3429 1.94353 37.3786 1.8716 37.4028 1.82265L37.4303 1.76671L37.4374 1.75216L37.4393 1.74832L37.4398 1.74727L37.4399 1.74697C37.44 1.74688 37.44 1.74681 36.9903 1.52831L37.44 1.74681L37.4438 1.73905L37.4473 1.73116C37.6013 1.38432 37.7926 1.07978 38.0552 0.862196C38.3069 0.653498 38.6535 0.5 39.173 0.5H44.1682C44.6599 0.5 44.931 0.611079 45.0734 0.72615C45.2035 0.831331 45.2809 0.983538 45.2904 1.2132L45.2905 1.21647C45.2985 1.38132 45.2699 1.58919 45.1934 1.84052Z" stroke="white"/>
</svg>
